<svg preserveAspectRatio="none" overflow="visible" style="display: block;" width="578.793" height="129.347" viewBox="0 0 578.793 129.347" fill="none" xmlns="http://www.w3.org/2000/svg">
<g id="Group 2">
<path id="Vector" d="M435.268 88.6695C426.454 114.657 403.21 128.211 377.288 128.384C346.354 128.557 320.949 108.268 316.37 77.1005C313.432 57.5887 316.715 37.5588 328.985 21.8457C341.255 6.13256 359.315 0.00274327 378.67 0.175415C404.075 0.348086 426.541 14.5071 434.922 38.7674C440.453 54.8259 440.885 72.0067 435.268 88.7558V88.6695ZM390.681 18.1332H363.635L363.895 110.426H390.94L390.681 18.1332Z" fill="#FFE500"/>
<path id="Vector_2" d="M58.6126 128.297C33.4677 127.089 12.6432 113.275 4.26158 89.7916C-0.836533 75.6326 -1.18217 59.8332 2.27418 45.2424C8.92764 17.0107 32.8628 0.261576 61.2913 0.0025695C92.0528 -0.256438 117.63 19.0827 122.641 50.2499C124.024 58.8835 124.024 68.8984 122.641 77.6183C117.889 109.649 91.1887 129.938 58.6126 128.297ZM75.7215 108.095V20.0324C66.3894 17.5287 57.4893 17.356 48.0708 20.0324V108.268C57.1437 110.858 66.735 111.03 75.7215 108.095Z" fill="#FFE500"/>
<path id="Vector_3" d="M514.505 128.384C486.941 127.434 463.869 111.03 457.216 83.8344C453.5 68.553 453.932 52.1492 459.549 37.2131C468.276 13.7298 490.224 1.12481 514.159 0.0887842C552.438 -1.55159 578.793 26.9392 578.793 63.8908C578.793 101.015 553.302 129.765 514.505 128.384ZM530.577 108.008V20.0323C521.158 17.4423 512.172 17.4423 502.926 20.0323V108.181C512.085 110.944 521.59 111.116 530.577 108.008Z" fill="#FFE500"/>
<path id="Vector_4" d="M144.762 112.843L157.291 100.152C171.03 110.771 186.843 113.188 204.038 110.512V84.007C183.905 86.4244 153.576 83.8343 141.565 64.6678C128.863 44.2926 137.59 18.7373 159.279 8.37698C176.993 -0.0839192 198.076 -0.86094 216.913 5.5279C251.736 17.3559 257.093 60.6964 248.107 91.0865C241.108 114.829 220.024 129.074 195.57 129.333C176.993 129.592 159.884 126.398 144.676 112.757L144.762 112.843ZM204.298 65.5312L204.038 20.205C196.521 19.6006 189.954 19.6006 183.473 20.205V67.2579C190.732 68.1213 197.817 67.5169 204.298 65.5312Z" fill="#FFE500"/>
<path id="Vector_5" d="M286.991 26.5943C284.744 29.3571 276.795 28.4074 272.82 27.6304L272.647 6.56445L303.063 6.99612L287.077 26.6807L286.991 26.5943Z" fill="#FFE500"/>
<path id="Vector_6" d="M302.89 106.627C289.842 121.132 290.015 130.628 272.647 127.175L272.474 106.368L302.89 106.627Z" fill="#FFE500"/>
</g>
</svg>
